<svg width="40" height="40" viewBox="0 0 40 40" fill="none" xmlns="http://www.w3.org/2000/svg">
<path d="M2.27565 25.199L1.28444 27.0575C1.08546 27.4304 1.35585 27.8812 1.77852 27.8812H3.76094C4.18361 27.8812 4.45399 27.4304 4.25502 27.0575L3.26381 25.199C3.05323 24.8035 2.48652 24.8035 2.27565 25.199Z" fill="#4E7693"/>
<path d="M36.7361 25.199L35.7449 27.0575C35.5459 27.4304 35.8163 27.8812 36.2393 27.8812H38.2214C38.6444 27.8812 38.9147 27.4304 38.7158 27.0575L37.7246 25.199C37.5137 24.8035 36.947 24.8035 36.7361 25.199Z" fill="#4E7693"/>
<path d="M38.3264 22.3529H1.67358C0.749207 22.3529 0 21.6037 0 20.6796V13.8611C0 12.9367 0.749207 12.1875 1.67358 12.1875H38.3264C39.2508 12.1875 40 12.9367 40 13.8611V20.6796C40 21.6037 39.2508 22.3529 38.3264 22.3529Z" fill="#97FFE7"/>
<path d="M5 12.1875H10V22.3529H5V12.1875Z" fill="#32DFB7"/>
<path d="M10 12.1875H15V22.3529H10V12.1875Z" fill="#21C69C"/>
<path d="M15 12.1875H20V22.3529H15V12.1875Z" fill="#12967E"/>
<path d="M20 12.1875H25V22.3529H20V12.1875Z" fill="#00ADDB"/>
<path d="M25 12.1875H30V22.3529H25V12.1875Z" fill="#06C7F4"/>
<path d="M30 12.1875H35V22.3529H30V12.1875Z" fill="#27E6FC"/>
<path d="M38.3264 22.3529H35V12.1875H38.3264C39.2508 12.1875 40 12.9367 40 13.8611V20.6796C40 21.6037 39.2508 22.3529 38.3264 22.3529Z" fill="#9AF5FE"/>
</svg>
