<?xml version="1.0" encoding="UTF-8"?>
<!DOCTYPE svg PUBLIC "-//W3C//DTD SVG 1.1//EN" "http://www.w3.org/Graphics/SVG/1.1/DTD/svg11.dtd">
<!-- Creator: CorelDRAW X6 -->
<svg xmlns="http://www.w3.org/2000/svg" xml:space="preserve" width="3809px" height="3938px" version="1.1" style="shape-rendering:geometricPrecision; text-rendering:geometricPrecision; image-rendering:optimizeQuality; fill-rule:evenodd; clip-rule:evenodd"
viewBox="0 0 3809 3938"
 xmlns:xlink="http://www.w3.org/1999/xlink">
 <defs>
  <style type="text/css">
   <![CDATA[
    .str2 {stroke:#262626;stroke-width:2.10735}
    .str1 {stroke:#0A7DE6;stroke-width:5.53298}
    .str0 {stroke:white;stroke-width:5.53298}
    .fil3 {fill:#0A7DE6}
    .fil1 {fill:#262626}
    .fil2 {fill:yellow}
    .fil0 {fill:white}
   ]]>
  </style>
 </defs>
 <g id="Camada_x0020_1">
  <metadata id="CorelCorpID_0Corel-Layer"/>
  <g id="_627328368">
   <path class="fil0 str0" d="M1275 1966c59,59 97,147 106,253 38,116 106,147 166,50 59,-97 116,-147 138,-234 9,-38 50,-175 38,-206 0,-88 -78,-97 -166,-50 -69,38 -147,59 -225,59 -88,-19 -138,0 -106,69l38 69 9 -9 3 0z"/>
   <path class="fil1" d="M2747 3566l0 0c0,0 0,0 0,0l-19 -19 9 0 -116 -69c-38,-97 -106,-147 -216,-88 0,0 0,0 9,0 0,0 0,0 -9,0 38,9 50,19 59,28 9,19 -9,50 9,88 0,0 0,0 0,9 -69,-9 -294,-138 -372,-166l-116 -50c-28,-9 19,28 9,38l-19 -9 -97 -97 0 0 0 0c-88,-194 -116,-331 -106,-506 38,-147 59,-313 69,-469l0 -450 28 0 19 281c69,59 78,-206 88,-409 0,-19 -38,-19 -38,9 -19,-69 -28,-166 -9,-281 -9,-381 -88,-506 -175,-703 0,0 0,0 -9,-9 -97,-206 -234,-331 -341,-419l19 -128 -88 -9 50 -50c-38,28 -88,38 -147,19 0,-38 -9,-78 -38,-106 -69,78 -166,128 -313,106l9 -69c-69,50 -138,88 -225,88 -88,9 97,-97 69,-69 -28,19 -234,138 -234,138l9 -50 -147 138 0 0c-106,106 -184,253 -234,438l0 0 0 0c0,0 0,9 0,9l0 0c-69,225 -128,459 -138,672l97 556c0,-138 -19,-566 106,-644 19,-9 -9,-59 -19,-78 -59,-372 516,-681 956,-359 88,69 166,147 263,216 59,38 78,78 -38,88 -147,28 -372,138 -359,313 19,225 97,341 253,497 19,19 19,38 0,50l-38 0c-38,0 -97,9 -147,38 -69,38 -50,38 -116,38 -78,0 78,59 59,97 -19,97 69,138 175,175 19,50 -59,9 -59,50 0,28 -78,19 -128,19 -69,19 -138,28 -175,69 -28,9 -38,59 -59,50l-9 28c50,0 88,0 138,-9 59,-28 106,-38 166,-9l28 19c106,28 -206,59 -206,128 -9,88 175,97 331,116 59,0 88,19 78,59 0,28 -9,28 -38,38l-128 50c-166,97 -331,78 -506,-28 -38,-9 -69,-28 -88,-9l9 78c78,234 166,644 206,897l2028 0c0,0 1394,9 934,9 -459,0 -934,-391 -934,-391l0 0 -28 9 -6 9z"/>
   <path class="fil2 str1" d="M1275 1956c59,59 106,147 106,253 38,116 106,147 166,50 59,-97 116,-147 138,-234 9,-38 50,-175 50,-206 0,-88 -78,-97 -166,-59 -69,38 -147,59 -225,59 -88,-19 -138,0 -106,69l38 69 0 0z"/>
   <circle class="fil1" cx="769" cy="2941" r="19"/>
   <path class="fil1" d="M1228 2463c-38,-9 -106,-9 -156,28 -9,9 -19,19 -50,19 -59,-9 -156,9 -225,38 -50,19 -50,28 -97,19l-50 0c-28,9 -38,28 -50,59 28,69 19,19 59,9 19,-9 69,0 78,-9l106 -19c38,-9 69,-9 97,-9 88,19 166,-9 244,-9l19 -128 19 0 6 3z"/>
   <path class="fil3" d="M1275 1956c59,59 106,147 106,253 38,116 106,147 166,50 59,-97 116,-147 138,-234 9,-38 50,-175 50,-206 0,-88 -78,-97 -166,-59 -69,38 -147,59 -225,59 -88,-19 -138,0 -106,69l38 69 0 0z"/>
   <path class="fil1" d="M894 1606c28,-69 28,-147 -38,-184 -97,-59 -400,-9 -400,-9l-50 38c-19,0 -69,28 -78,38l166 9c0,0 116,38 -19,88 -138,50 -166,97 -166,97l28 50 0 -9 116 0 -19 -19c0,-9 -9,-9 0,-9 9,-9 19,-9 28,9l9 38 138 9c-9,19 -38,50 -78,69 -9,9 -9,19 0,19 88,0 147,-28 194,-69 9,-28 38,-50 69,-69 9,-9 28,9 38,9 38,-19 28,-38 50,-97l9 -9 3 3z"/>
   <path class="fil1 str2" d="M1031 2297c-28,-9 -50,-28 -78,-50 -38,-19 -88,-28 -78,9 0,19 0,28 -19,28 -38,0 -69,-19 -78,-50 -9,-38 0,-59 38,-78 50,-19 88,-28 147,-38 28,0 69,19 97,0l-9 166 -19 9 0 3z"/>
  </g>
 </g>
</svg>
