<?xml version="1.0" encoding="utf-8"?>
<!-- Generator: Adobe Illustrator 22.0.1, SVG Export Plug-In . SVG Version: 6.00 Build 0)  -->
<svg version="1.1" id="Camada_1" xmlns="http://www.w3.org/2000/svg" xmlns:xlink="http://www.w3.org/1999/xlink" x="0px" y="0px"
	 viewBox="0 0 327.1 126.3" style="enable-background:new 0 0 327.1 126.3;" xml:space="preserve">
<style type="text/css">
	.st0{display:none;fill:#232323;stroke:#000000;stroke-miterlimit:10;}
	.st1{fill-rule:evenodd;clip-rule:evenodd;fill:#20B787;stroke:#20B787;stroke-width:0.216;stroke-miterlimit:22.9256;}
	.st2{fill-rule:evenodd;clip-rule:evenodd;fill:#20B787;stroke:#20B787;stroke-width:0.4799;stroke-miterlimit:22.9256;}
	.st3{fill:#20B787;}
	.st4{fill:#FFFFFF;}
	.st5{fill-rule:evenodd;clip-rule:evenodd;fill:#FFFFFF;}
	.st6{fill-rule:evenodd;clip-rule:evenodd;fill:#20B787;}
</style>
<rect class="st0" width="327.1" height="126.3"/>
<g>
	<polygon class="st1" points="44.2,67.6 39.4,67.6 55.4,29.9 60,29.9 44.2,67.6 	"/>
	<polygon class="st2" points="296,35.3 296,40.2 313.3,49.4 296,58.7 296,63.6 317.3,52.1 317.3,51.6 317.3,47.3 317.3,46.8 	"/>
	<polygon class="st2" points="35.2,35.3 13.9,46.8 13.9,47.3 13.9,51.6 13.9,52.1 35.2,63.6 35.2,58.7 17.9,49.4 35.2,40.2 	"/>
	<path class="st3" d="M81.1,88.1h10.5v9.3h3.9V74.9h-3.9v9.6H81.1v-9.6h-4v22.5h4V88.1L81.1,88.1z M114.9,74.6
		c-8.6,0-11.2,6.8-11.2,11.5c0,4.8,2.6,11.6,11.2,11.6c8.6,0,11.1-6.8,11.1-11.6C126,81.4,123.5,74.6,114.9,74.6L114.9,74.6z
		 M114.9,94.1c-6.3,0-7.2-6-7.2-8c0-2,0.9-7.9,7.2-7.9c6.2,0,7.1,5.9,7.1,7.9C122,88.1,121.1,94.1,114.9,94.1L114.9,94.1z
		 M134.3,74.8v22.6h4V83.8l14.1,13.7l0.3-0.1V74.9h-4v13.4l-14.2-13.7L134.3,74.8L134.3,74.8z M172.2,74.6
		c-8.6,0-11.2,6.8-11.2,11.5c0,4.8,2.6,11.6,11.2,11.6c8.6,0,11.1-6.8,11.1-11.6C183.3,81.4,180.7,74.6,172.2,74.6L172.2,74.6z
		 M172.2,94.1c-6.3,0-7.2-6-7.2-8c0-2,0.9-7.9,7.2-7.9c6.2,0,7.1,5.9,7.1,7.9C179.3,88.1,178.4,94.1,172.2,94.1L172.2,94.1z
		 M195.5,89.3h3.8l3.8,8h4.2c-1.2-2.7-2.8-5.9-4.1-8.6c2.6-1,4.7-3.4,4.7-6.7c0-2.9-1.8-7.2-7.9-7.2h-8.4v22.5h3.9V89.3L195.5,89.3z
		 M200.3,85.7h-4.8v-7.3h4.7c3.2,0,3.8,2.4,3.8,3.7C204,83.2,203.3,85.7,200.3,85.7L200.3,85.7z M243.5,97.4h4V78.5h6.4v-3.5h-16.6
		v3.5h6.3V97.4L243.5,97.4z M269.9,74.6c-8.6,0-11.2,6.8-11.2,11.5c0,4.8,2.6,11.6,11.2,11.6c8.6,0,11.1-6.8,11.1-11.6
		C281,81.4,278.4,74.6,269.9,74.6L269.9,74.6z M269.9,94.1c-6.3,0-7.2-6-7.2-8c0-2,0.9-7.9,7.2-7.9c6.2,0,7.1,5.9,7.1,7.9
		C277,88.1,276.1,94.1,269.9,94.1L269.9,94.1z"/>
	<path class="st4" d="M264.8,30.9c-13.1,0-17.1,10.6-17.1,17.8c0,7.4,4,17.8,17.1,17.8c13,0,17-10.4,17-17.8
		C281.8,41.5,277.8,30.9,264.8,30.9L264.8,30.9z"/>
	<path class="st4" d="M229.6,53.9v4.4c-1.2,1.1-3.7,1.8-5.7,1.8c-8.8,0-10-8.7-10-11.5c0-2.8,1.2-11.1,10-11.1c3,0,6.5,1.7,8.5,3.7
		l4.3-4.6c-3.2-3.5-7.2-5.6-12.7-5.6c-13.1,0-17.1,10.5-17.1,17.7c0,7.4,4,17.7,17.1,17.7c5.4,0,9.4-1.8,12.6-5.1V47.6h-13.8v6.3
		H229.6L229.6,53.9z"/>
	<polygon class="st4" points="155,31.5 148,31.5 148,65.9 155,65.9 155,31.5 	"/>
	<polygon class="st4" points="112.3,52.2 126.6,52.2 126.6,65.9 133.6,65.9 133.6,31.5 126.6,31.5 126.6,45.8 112.3,45.8 
		112.3,31.5 105.3,31.5 105.3,65.9 112.3,65.9 112.3,52.2 	"/>
	<polygon class="st4" points="77.1,65.9 84.1,65.9 84.1,38 93.5,38 93.5,31.6 67.8,31.6 67.8,38 77.1,38 77.1,65.9 	"/>
	<path class="st5" d="M166.6,65.9h32.6l-16.1-33.2h-0.5L166.6,65.9L166.6,65.9z M176.5,59.7h12.7l-6.3-13h-0.2L176.5,59.7
		L176.5,59.7z"/>
	<path class="st6" d="M213.5,97.4h21.9l-10.8-22.3h-0.3L213.5,97.4L213.5,97.4z M220.2,93.2h8.5l-4.2-8.7h-0.1L220.2,93.2
		L220.2,93.2z"/>
</g>
</svg>
