<?xml version="1.0" encoding="utf-8"?>
<!-- Generator: Adobe Illustrator 22.0.1, SVG Export Plug-In . SVG Version: 6.00 Build 0)  -->
<svg version="1.1" id="Camada_1" xmlns="http://www.w3.org/2000/svg" xmlns:xlink="http://www.w3.org/1999/xlink" x="0px" y="0px"
	 viewBox="0 0 640.9 158.8" style="enable-background:new 0 0 640.9 158.8;" xml:space="preserve">
<style type="text/css">
	.st0{fill-rule:evenodd;clip-rule:evenodd;fill:#F41E52;stroke:#F41E52;stroke-width:0.216;stroke-miterlimit:22.9256;}
	.st1{fill-rule:evenodd;clip-rule:evenodd;fill:#F41E52;stroke:#F41E52;stroke-width:0.4799;stroke-miterlimit:22.9256;}
	.st2{fill-rule:evenodd;clip-rule:evenodd;fill:#F4386E;stroke:#F4386E;stroke-width:0.4799;stroke-miterlimit:22.9256;}
	.st3{fill:#FFFFFF;}
	.st4{fill:#F41E52;}
	.st5{fill-rule:evenodd;clip-rule:evenodd;fill:#F41E52;}
</style>
<g>
	<polygon class="st0" points="85.8,84.9 76.8,84.9 107.3,13.4 116.1,13.4 85.8,84.9 	"/>
	<polygon class="st1" points="68.9,77.3 28.4,55.6 28.4,46.4 68.9,68.1 68.9,77.3 	"/>
	<polygon class="st2" points="68.9,23.6 28.4,45.4 28.4,54.6 68.9,32.8 68.9,23.6 	"/>
	<path class="st3" d="M181,18.8h-45.2v13h16.1v52.2H165V31.8h16V18.8L181,18.8z M336.8,83.9H381v0h9.1L359,17.1h-0.4l-31.1,66.8
		L336.8,83.9L336.8,83.9L336.8,83.9z M370.9,72.8h-24.2l12.1-26.5L370.9,72.8L370.9,72.8z M244.4,18.8v26.1h-23.5V18.8h-13.1v65.2
		h13.1V57.8h23.5v26.1h13.1V18.8H244.4L244.4,18.8z M288.3,83.9h13.1V18.8h-13.1V83.9L288.3,83.9z M472.5,47.3h-30.6v12.1h16.9
		c-0.4,7.9-7.1,12.7-16.4,12.7c-12.8,0-21.6-9.3-21.6-20.7c0-12.2,10.2-20.7,20.4-20.7c5.8,0,11.7,2.8,16.8,7.8l7.3-10.9
		c-6.4-6.2-15.4-10.1-23.9-10.2c-18.7,0-33.9,15.3-33.9,34c0,18.6,15.1,33.8,34.3,33.8c17,0,31.1-11.9,31.1-32.4
		C472.8,51.1,472.7,49.2,472.5,47.3L472.5,47.3z M531.9,85.2c18.7,0,34-15.2,34-33.7c0-18.7-15.3-34-33.9-34
		c-18.6,0-33.8,15.3-33.8,34C498.1,70,513.3,85.2,531.9,85.2L531.9,85.2z M531.9,71.9c-11.4,0-20.6-9.3-20.6-20.6
		c0-11.4,9.3-20.7,20.6-20.7c11.4,0,20.7,9.3,20.7,20.7C552.6,62.7,543.3,71.9,531.9,71.9L531.9,71.9z"/>
	<polygon class="st4" points="480.3,146 488.1,146 488.1,108.7 500.7,108.7 500.7,101.7 467.9,101.7 467.9,108.7 480.3,108.7 
		480.3,146 	"/>
	<polygon class="st4" points="264.8,101.4 264.8,146 272.6,146 272.6,119.3 300.5,146.5 301.1,146.2 301.1,101.6 293.3,101.6 
		293.3,128.2 265.3,101.1 264.8,101.4 	"/>
	<polygon class="st4" points="159.6,127.7 180.3,127.7 180.3,146 188,146 188,101.6 180.3,101.6 180.3,120.7 159.6,120.7 
		159.6,101.6 151.8,101.6 151.8,146 159.6,146 159.6,127.7 	"/>
	<path class="st5" d="M422.7,146.1H466L444.6,102H444L422.7,146.1L422.7,146.1z M435.9,137.8h16.9l-8.3-17.2h-0.3L435.9,137.8
		L435.9,137.8z"/>
	<path class="st4" d="M229.8,101.3c6.1,0,11.7,2.6,15.7,6.7c4,4.1,6.4,9.8,6.4,16c0,6.2-2.5,11.9-6.4,16c-4,4.2-9.5,6.7-15.7,6.7
		c-6.1,0-11.7-2.6-15.7-6.7c-4-4.1-6.4-9.8-6.4-16c0-6.2,2.5-11.9,6.4-16C218.1,103.8,223.6,101.3,229.8,101.3L229.8,101.3z
		 M240.2,113c-2.7-2.8-6.4-4.5-10.5-4.5c-4.1,0-7.8,1.7-10.5,4.5c-2.7,2.8-4.4,6.7-4.4,11.1c0,4.3,1.7,8.2,4.4,11.1
		c2.7,2.8,6.4,4.5,10.5,4.5c4.1,0,7.8-1.7,10.5-4.5c2.7-2.8,4.4-6.7,4.4-11.1C244.6,119.7,243,115.8,240.2,113L240.2,113z"/>
	<path class="st4" d="M341.5,101.3c6.1,0,11.7,2.6,15.7,6.7c4,4.1,6.4,9.8,6.4,16c0,6.2-2.5,11.9-6.4,16c-4,4.2-9.5,6.7-15.7,6.7
		c-6.1,0-11.7-2.6-15.7-6.7c-4-4.1-6.4-9.8-6.4-16c0-6.2,2.5-11.9,6.4-16C329.9,103.8,335.4,101.3,341.5,101.3L341.5,101.3z
		 M352,113c-2.7-2.8-6.4-4.5-10.5-4.5c-4.1,0-7.8,1.7-10.5,4.5c-2.7,2.8-4.4,6.7-4.4,11.1c0,4.3,1.7,8.2,4.4,11.1
		c2.7,2.8,6.4,4.5,10.5,4.5c4.1,0,7.8-1.7,10.5-4.5c2.7-2.8,4.4-6.7,4.4-11.1C356.4,119.7,354.7,115.8,352,113L352,113z"/>
	<path class="st4" d="M532.3,101.3c6.1,0,11.7,2.6,15.7,6.7c4,4.1,6.4,9.8,6.4,16c0,6.2-2.5,11.9-6.4,16c-4,4.2-9.5,6.7-15.7,6.7
		c-6.1,0-11.7-2.6-15.7-6.7c-4-4.1-6.4-9.8-6.4-16c0-6.2,2.5-11.9,6.4-16C520.6,103.8,526.2,101.3,532.3,101.3L532.3,101.3z
		 M542.8,113c-2.7-2.8-6.4-4.5-10.5-4.5s-7.8,1.7-10.5,4.5c-2.7,2.8-4.4,6.7-4.4,11.1c0,4.3,1.7,8.2,4.4,11.1
		c2.7,2.8,6.4,4.5,10.5,4.5s7.8-1.7,10.5-4.5c2.7-2.8,4.4-6.7,4.4-11.1C547.2,119.7,545.5,115.8,542.8,113L542.8,113z"/>
	<path class="st4" d="M385.4,130.4h7.3l7.4,15.7h8.3c-2.4-5.2-5.5-11.4-7.9-16.7c5.1-2,9.2-6.7,9.2-13.1c0-5.7-3.6-14-15.5-14h-16.4
		V146h7.6V130.4L385.4,130.4z M394.8,123.3h-9.4V109h9.2c6.1,0,7.5,4.7,7.5,7.2C402.1,118.4,400.7,123.2,394.8,123.3L394.8,123.3z"
		/>
	<polygon class="st1" points="590.3,23.6 630.8,45.4 630.8,54.6 590.3,32.8 590.3,23.6 	"/>
	<polygon class="st2" points="590.3,77.3 630.8,55.6 630.8,46.4 590.3,68.1 590.3,77.3 	"/>
</g>
</svg>
