<svg width="40" height="40" viewBox="0 0 40 40" fill="none" xmlns="http://www.w3.org/2000/svg">
<g clip-path="url(#clip0)">
<path d="M26.2085 4.08199C26.5532 4.08199 26.8326 3.80259 26.8326 3.45792C26.8326 3.11326 26.5532 2.83386 26.2085 2.83386C25.8639 2.83386 25.5845 3.11326 25.5845 3.45792C25.5845 3.80259 25.8639 4.08199 26.2085 4.08199Z" fill="#21C69C"/>
<path d="M29.2007 4.08199C29.5454 4.08199 29.8248 3.80259 29.8248 3.45792C29.8248 3.11326 29.5454 2.83386 29.2007 2.83386C28.8561 2.83386 28.5767 3.11326 28.5767 3.45792C28.5767 3.80259 28.8561 4.08199 29.2007 4.08199Z" fill="#21C69C"/>
<path d="M32.1924 4.08199C32.5371 4.08199 32.8165 3.80259 32.8165 3.45792C32.8165 3.11326 32.5371 2.83386 32.1924 2.83386C31.8478 2.83386 31.5684 3.11326 31.5684 3.45792C31.5684 3.80259 31.8478 4.08199 32.1924 4.08199Z" fill="#21C69C"/>
<path d="M8.02551 19.4743L11.9611 16.9004C12.0211 16.8555 12.1107 16.8406 12.1856 16.8406C12.4998 16.8406 12.9039 17.1698 12.9039 17.5888C12.9039 17.7683 12.8141 17.933 12.6794 18.0228L9.53684 20.0878L12.6794 22.1529C12.8141 22.2278 12.9039 22.3923 12.9039 22.5869C12.9039 23.0059 12.4998 23.3202 12.1856 23.3202C12.1107 23.3202 12.0211 23.3053 11.9611 23.2604L8.02551 20.6864C7.80105 20.5368 7.69629 20.2825 7.69629 20.0878C7.69629 19.8932 7.80105 19.6239 8.02551 19.4743Z" fill="#21C69C"/>
<path d="M21.2239 13.279C21.2239 13.3688 21.209 13.4436 21.164 13.5185L15.6721 24.4723C15.5824 24.6519 15.3878 24.7567 15.1783 24.7567C14.8342 24.7567 14.5947 24.4723 14.5947 24.203C14.5947 24.1281 14.6096 24.0534 14.6396 23.9785L20.1464 12.9797C20.2362 12.7852 20.4008 12.7103 20.5953 12.7103C20.8947 12.7103 21.2239 12.9348 21.2239 13.279Z" fill="#21C69C"/>
<path d="M27.7785 20.6864L23.8428 23.2604C23.7829 23.3053 23.7081 23.3202 23.6333 23.3202C23.3041 23.3202 22.915 23.006 22.915 22.5869C22.915 22.3924 23.0048 22.2278 23.1246 22.1529L26.2821 20.0878L23.1246 18.0228C23.0049 17.933 22.915 17.7684 22.915 17.5888C22.915 17.1698 23.3041 16.8406 23.6333 16.8406C23.7081 16.8406 23.7829 16.8555 23.8428 16.9004L27.7785 19.4743C28.0029 19.6239 28.1077 19.8933 28.1077 20.0878C28.1077 20.2824 28.0179 20.5368 27.7785 20.6864Z" fill="#21C69C"/>
<path d="M3.61084 4.04382H16.3516C16.6753 4.04382 16.9376 3.78148 16.9376 3.45789C16.9376 3.13429 16.6753 2.87195 16.3516 2.87195H3.61084C3.28717 2.87195 3.0249 3.13429 3.0249 3.45789C3.0249 3.78148 3.28717 4.04382 3.61084 4.04382Z" fill="#21C69C"/>
<path d="M22.3754 34.9151H1.88969C1.49391 34.9151 1.17188 34.5931 1.17188 34.1973V6.6686H34.668V22.5511C34.668 22.8747 34.9302 23.137 35.2539 23.137C35.5776 23.137 35.8398 22.8747 35.8398 22.5511V2.13688C35.8398 1.09493 34.9921 0.247192 33.9502 0.247192H1.88969C0.847734 0.247114 0 1.09485 0 2.13688V34.1973C0 35.2392 0.847734 36.087 1.88969 36.087H22.3754C22.6991 36.087 22.9613 35.8246 22.9613 35.501C22.9613 35.1774 22.6991 34.9151 22.3754 34.9151ZM1.88969 1.41899H33.9501C34.3459 1.41899 34.6679 1.74102 34.6679 2.1368V5.49672H1.17188V2.13688C1.17188 1.74102 1.49391 1.41899 1.88969 1.41899Z" fill="#21C69C"/>
<path d="M31.1064 26.7034C28.8149 26.7034 26.9507 28.5676 26.9507 30.8591C26.9507 33.1506 28.8149 35.0148 31.1064 35.0148C33.3979 35.0148 35.2621 33.1506 35.2621 30.8591C35.2621 28.5676 33.3979 26.7034 31.1064 26.7034ZM31.1064 33.8429C29.4611 33.8429 28.1226 32.5044 28.1226 30.8591C28.1226 29.2138 29.4612 27.8752 31.1064 27.8752C32.7516 27.8752 34.0902 29.2138 34.0902 30.8591C34.0902 32.5044 32.7517 33.8429 31.1064 33.8429Z" fill="#21C69C"/>
<path d="M38.6065 29.0049H38.0685C37.9717 29.0049 37.8851 28.9426 37.8582 28.8533C37.7177 28.3895 37.5285 27.9386 37.296 27.5128C37.25 27.4287 37.2661 27.3217 37.3351 27.2526L37.7209 26.8668C38.2643 26.3234 38.2643 25.4392 37.7209 24.8957L37.0698 24.2447C36.5265 23.7013 35.6422 23.7012 35.0987 24.2447L34.713 24.6304C34.6439 24.6995 34.5369 24.7156 34.4528 24.6696C34.0269 24.437 33.5758 24.2479 33.1122 24.1074C33.023 24.0804 32.9608 23.9939 32.9608 23.897V23.3592C32.9608 22.5906 32.3355 21.9653 31.5669 21.9653H30.6462C29.8776 21.9653 29.2524 22.5906 29.2524 23.3592V23.8621C29.2524 23.9607 29.1886 24.0477 29.0971 24.0737C28.619 24.2096 28.1537 24.3969 27.7144 24.6302C27.6319 24.6739 27.5266 24.6567 27.4584 24.5886L27.1145 24.2447C26.8512 23.9814 26.5012 23.8364 26.129 23.8364C25.7566 23.8364 25.4066 23.9814 25.1434 24.2447L24.4924 24.8957C24.2291 25.159 24.0841 25.509 24.0841 25.8813C24.0841 26.2537 24.2291 26.6037 24.4924 26.867L24.8012 27.1757C24.8712 27.2457 24.8871 27.3531 24.8401 27.4367C24.588 27.885 24.3847 28.3613 24.2358 28.8524C24.2085 28.9422 24.1202 29.0049 24.021 29.0049H23.6068C22.8382 29.0049 22.2129 29.6302 22.2129 30.3988V31.3195C22.2129 32.0881 22.8382 32.7133 23.6068 32.7133H23.9887C24.0881 32.7133 24.1755 32.7764 24.2012 32.867C24.3452 33.3738 24.5466 33.8656 24.7997 34.3286C24.8444 34.4106 24.8275 34.5161 24.7584 34.5853L24.4924 34.8513C23.9491 35.3948 23.9491 36.279 24.4924 36.8224L25.1434 37.4735C25.6869 38.0169 26.5711 38.017 27.1145 37.4735L27.3806 37.2074C27.4498 37.1382 27.5551 37.1213 27.6373 37.1661C28.1002 37.4192 28.5919 37.6206 29.0989 37.7645C29.1894 37.7903 29.2526 37.8776 29.2526 37.977V38.359C29.2526 39.1275 29.8778 39.7528 30.6464 39.7528H31.567C32.3356 39.7528 32.9609 39.1276 32.9609 38.359V37.9448C32.9609 37.8455 33.0237 37.7572 33.1135 37.7299C33.6045 37.5811 34.0808 37.3778 34.529 37.1257C34.6126 37.0786 34.72 37.0946 34.7901 37.1645L35.0989 37.4735C35.6423 38.0167 36.5265 38.0168 37.0701 37.4735L37.7211 36.8224C38.2644 36.279 38.2644 35.3948 37.721 34.8513L37.3771 34.5074C37.3088 34.4391 37.2918 34.3339 37.3355 34.2515C37.5688 33.812 37.7561 33.3468 37.892 32.8687C37.918 32.7773 38.005 32.7134 38.1036 32.7134H38.6066C39.3752 32.7134 40.0004 32.0881 40.0004 31.3195V30.3988C40.0003 29.6301 39.3751 29.0049 38.6065 29.0049ZM38.8284 31.3193C38.8284 31.4417 38.7289 31.5413 38.6065 31.5413H38.1034C37.4836 31.5413 36.9332 31.9553 36.7647 32.548C36.6512 32.9469 36.4951 33.335 36.3004 33.7017C36.0128 34.2433 36.1125 34.9 36.5483 35.3359L36.8922 35.6798C36.9787 35.7663 36.9787 35.9071 36.8922 35.9937L36.2413 36.6447C36.1547 36.7312 36.0139 36.7312 35.9273 36.6448L35.6186 36.3359C35.1786 35.896 34.4944 35.8007 33.9545 36.1042C33.5803 36.3146 33.1829 36.4842 32.7733 36.6085C32.1937 36.7842 31.7888 37.3337 31.7888 37.9448V38.359C31.7888 38.4813 31.6893 38.581 31.5668 38.581H30.6462C30.5238 38.581 30.4242 38.4814 30.4242 38.359V37.977C30.4242 37.3563 30.0108 36.8053 29.4188 36.6373C28.9959 36.5171 28.5855 36.3492 28.1992 36.1379C27.9934 36.0255 27.7669 35.9708 27.541 35.9708C27.1791 35.9708 26.8193 36.1112 26.5518 36.3788L26.2857 36.6448C26.1992 36.7312 26.0584 36.7313 25.9719 36.6448L25.3209 35.9938C25.2344 35.9072 25.2344 35.7664 25.3209 35.6798L25.5867 35.4138C26.0213 34.9792 26.1204 34.3018 25.8276 33.7663C25.6164 33.3799 25.4484 32.9696 25.3283 32.5468C25.1603 31.9548 24.6093 31.5413 23.9885 31.5413H23.6066C23.4841 31.5413 23.3845 31.4418 23.3845 31.3194V30.3987C23.3845 30.2763 23.4841 30.1767 23.6066 30.1767H24.0208C24.6319 30.1767 25.1813 29.7719 25.357 29.1923C25.4812 28.7827 25.6509 28.3853 25.8613 28.011C26.1648 27.4711 26.0694 26.7869 25.6295 26.347L25.3207 26.0381C25.2641 25.9816 25.2557 25.9156 25.2557 25.8812C25.2557 25.8469 25.2641 25.7809 25.3208 25.7242L25.9718 25.0732C26.0284 25.0167 26.0944 25.0082 26.1287 25.0082C26.163 25.0082 26.2291 25.0167 26.2857 25.0733L26.6296 25.4172C27.0654 25.8531 27.7219 25.9528 28.2637 25.6652C28.6304 25.4705 29.0186 25.3142 29.4174 25.2009C30.0102 25.0324 30.4242 24.4818 30.4242 23.862V23.3591C30.4242 23.2367 30.5237 23.1371 30.6462 23.1371H31.5668C31.6892 23.1371 31.7888 23.2367 31.7888 23.3591V23.897C31.7888 24.5154 32.1841 25.0506 32.7724 25.2288C33.1593 25.346 33.5357 25.5039 33.8911 25.6981C34.4285 25.9915 35.1072 25.8933 35.5416 25.4589L35.9272 25.0732C36.0139 24.9867 36.1547 24.9867 36.2412 25.0732L36.8922 25.7242C36.9787 25.8108 36.9787 25.9516 36.8923 26.0381L36.5065 26.4239C36.0723 26.8582 35.974 27.5369 36.2675 28.0744C36.4615 28.4298 36.6195 28.8061 36.7367 29.1929C36.9148 29.7813 37.4501 30.1767 38.0686 30.1767H38.6065C38.7289 30.1767 38.8285 30.2762 38.8285 30.3986V31.3193H38.8284Z" fill="#21C69C"/>
</g>
<defs>
<clipPath id="clip0">
<rect width="40" height="40" fill="white"/>
</clipPath>
</defs>
</svg>
